<?xml version="1.0" encoding="UTF-8" standalone="no"?>
<svg
   viewBox="0 0 1600 900"
   version="1.1"
   id="svg28"
   sodipodi:docname="mountains.svg"
   inkscape:version="1.1.2 (0a00cf5339, 2022-02-04)"
   xmlns:inkscape="http://www.inkscape.org/namespaces/inkscape"
   xmlns:sodipodi="http://sodipodi.sourceforge.net/DTD/sodipodi-0.dtd"
   xmlns="http://www.w3.org/2000/svg"
   xmlns:svg="http://www.w3.org/2000/svg">
  <defs
     id="defs32" />
  <sodipodi:namedview
     id="namedview30"
     pagecolor="#ffffff"
     bordercolor="#666666"
     borderopacity="1.0"
     inkscape:pageshadow="2"
     inkscape:pageopacity="0.0"
     inkscape:pagecheckerboard="0"
     showgrid="false"
     inkscape:zoom="0.29698485"
     inkscape:cx="1070.7617"
     inkscape:cy="447.83429"
     inkscape:window-width="1920"
     inkscape:window-height="962"
     inkscape:window-x="0"
     inkscape:window-y="0"
     inkscape:window-maximized="1"
     inkscape:current-layer="svg28" />
  <g
     id="g972">
    <rect
       fill="#ff7700"
       width="1600"
       height="900"
       id="rect2"
       x="0"
       y="0" />
    <g
       id="g87"
       style="opacity:0.7">
      <polygon
         fill="#cc0000"
         points="1396,900 957,450 539,900 "
         id="polygon4" />
      <polygon
         fill="#aa0000"
         points="1396,900 957,450 872.9,900 "
         id="polygon6" />
      <polygon
         fill="#d6002b"
         points="816,900 -60,900 398,662 "
         id="polygon8" />
      <polygon
         fill="#b10022"
         points="816,900 337,900 398,662 "
         id="polygon10" />
      <polygon
         fill="#d9004b"
         points="876,900 1203,546 1552,900 "
         id="polygon12" />
      <polygon
         fill="#b2003d"
         points="1162,900 1203,546 1552,900 "
         id="polygon14" />
      <polygon
         fill="#d3006c"
         points="367,900 641,695 886,900 "
         id="polygon16" />
      <polygon
         fill="#ac0057"
         points="886,900 587,900 641,695 "
         id="polygon18" />
      <polygon
         fill="#c4008c"
         points="1096,900 1710,900 1401,632 "
         id="polygon20" />
      <polygon
         fill="#9e0071"
         points="1365,900 1710,900 1401,632 "
         id="polygon22" />
      <polygon
         fill="#aa00aa"
         points="725,900 1210,900 971,687 "
         id="polygon24" />
      <polygon
         fill="#880088"
         points="971,687 943,900 1210,900 "
         id="polygon26" />
    </g>
  </g>
</svg>
